{"title":"Star.Wars.Episode.V.The.Empire.Strikes.1980.BRRip.x264-VYTO","uid":12038677,"size":484525730,"categoryP":"video","categoryS":"movies","magnet":"?xt=urn:btih:693b6aea1057e517f9405625c1d631a68d826356&amp;dn=Star.Wars.Episode.V.The.Empire.Strikes.1980.BRRip.x264-VYTO&amp;tr=udp%3A%2F%2Ftracker.openbittorrent.com%3A80&amp;tr=udp%3A%2F%2Fopen.demonii.com%3A1337&amp;tr=udp%3A%2F%2Ftracker.coppersurfer.tk%3A6969&amp;tr=udp%3A%2F%2Fexodus.desync.com%3A6969","seeders":1,"leechers":2,"uploader":"ValidusVyto","files":7,"time":1434731973,"description":"                                                                                                   \n                                                                                                  \n                                                                                                   \nPPPPPPPPPPPPPPPPP   222222222222222   PPPPPPPPPPPPPPPPP  DDDDDDDDDDDDD     LLLLLLLLLLL             \nP::::::::::::::::P 2::::::MAKE!::::22 P:::::::SAVE!::::P D::::SHARE!::DDD  L:::::::::L             \nP::::::PPPPPP:::::P2::::::222222:::::2P::::::PPPPPP:::::PD:::::::::::::::DDL:::::::::L             \nPP:::::P     P:::::2222222     2:::::2PP:::::P     P:::::DDD:::::DDDDD:::::LL:::::::LL             \n  P::::P     P:::::P           2:::::2  P::::P     P:::::P D:::::D    D:::::DL:::::L               \n  P::::P     P:::::P           2:::::2  P::::P     P:::::P D:::::D     D:::::L:::::L               \n  P::::PPPPPP:::::P         2222::::2   P::::PPPPPP:::::P  D:::::D     D:::::L:::::L               \n  P:::::::::::::PP     22222::::::22    P:::::::::::::PP   D:::::D     D:::::L:::::L               \n  P::::PPPPPPPPP     22::::::::222      P::::PPPPPPPPP     D:::::D     D:::::L:::::L               \n  P::::P            2:::::22222         P::::P             D:::::D     D:::::L:::::L               \n  P::::P           2:::::2              P::::P             D:::::D     D:::::L:::::L               \n  P::::P           2:::::2              P::::P             D:::::D    D:::::DL:::::L         LLLLLL\nPP::::::PP         2:::::2       22222PP::::::PP         DDD:::::DDDDD:::::LL:::::::LLLLLLLLL:::::L\nP::::::::P         2::::::2222222:::::P::::::::P         D:::::::::::::::DDL::::::::::::::::::::::L\nP::::::::P         2:::::Vitamin_X::::P::VYTO::P         D::::ViZNU:::DDD  L::::::::::::::::::::::L\nPPPPPPPPP PRiSTiNE 2222222222222222222PPPPPPPPP PRiSTiNE DDDDDDDDDDDDD     LLLLLLLLLLLLLLLLLLLLLLLL\n                                                                                                   \n                                                                                                   \n                                                                                                  \n_______ Visit us at our Semi Public Bittorrent Community ________\n \n _____________________________ \n\n\n\nStar.Wars.Episode.V.The.Empire.Strikes.1980.BRRip.x264-VYTO\n\n\nGenre:  Action, Adventure, Fantasy\nIMDb: http://www.imdb.com/title/tt0080684/\n\nFormat                         : MPEG-4\nFile size                      : 452 MiB\nDuration                       : 2h 7mn\nOverall bit rate               : 496 Kbps\n\nVideo\nFormat                         : AVC\nBit rate                       : 453 Kbps\nWidth                          : 720 pixels\nHeight                         : 304 pixels\nDisplay aspect ratio           : 2.35:1\nFrame rate mode                : Constant\nFrame rate                     : 23.976 fps\nBit depth                      : 8 bits\nStream size                    : 413 MiB (91%)\nWriting library                : x264 core 146 r2538 121396c\n\nAudio\nFormat                         : AAC\nBit rate mode                  : Variable\nBit rate                       : 40.0 Kbps\nChannel(s)                     : 2 channels\nChannel positions              : Front: L R\nSampling rate                  : 48.0 KHz\nStream size                    : 36.4 MiB (8%)\nLanguage                       : English\n\nSubtitle                    : Yes(English)\nSource                      : 720p.BluRay.DTS.x264-DON\n &lt;a href=&quot;\nhttp://someimage.com/xBPSZaE&quot; rel=&quot;nofollow&quot; target=&quot;_NEW&quot;&gt;\nhttp://someimage.com/xBPSZaE&lt;/a&gt; &lt;a href=&quot;\nhttp://someimage.com/5X1STfh&quot; rel=&quot;nofollow&quot; target=&quot;_NEW&quot;&gt;\nhttp://someimage.com/5X1STfh&lt;/a&gt; &lt;a href=&quot;\nhttp://someimage.com/IcILZLH&quot; rel=&quot;nofollow&quot; target=&quot;_NEW&quot;&gt;\nhttp://someimage.com/IcILZLH&lt;/a&gt; &lt;a href=&quot;\nhttp://someimage.com/JTe4OvD&quot; rel=&quot;nofollow&quot; target=&quot;_NEW&quot;&gt;\nhttp://someimage.com/JTe4OvD&lt;/a&gt;\n\n----------------------------------------------------------------------------------------------------\n\n\nEncoder Notes: Looking For Early Access To Anything You Can Provide DVDScr, R5, DVDR, BluRay, Direct\nAudio, Music Releases and Seedboxes. If You Got anything to offer please contact us.\n\nSupport us by donating BC - 1FgwdzPsd1y25Gea8wP1qni35uGCtmkRCD\n\nFace book Fan Page","torrent":{"xt":"urn:btih:693b6aea1057e517f9405625c1d631a68d826356","amp;dn":"Star.Wars.Episode.V.The.Empire.Strikes.1980.BRRip.x264-VYTO","amp;tr":["udp%3A%2F%2Ftracker.openbittorrent.com%3A80","udp%3A%2F%2Fopen.demonii.com%3A1337","udp%3A%2F%2Ftracker.coppersurfer.tk%3A6969","udp%3A%2F%2Fexodus.desync.com%3A6969"],"infoHash":"693b6aea1057e517f9405625c1d631a68d826356","infoHashBuffer":{"type":"Buffer","data":[105,59,106,234,16,87,229,23,249,64,86,37,193,214,49,166,141,130,99,86]},"announce":[],"urlList":[]}}